<svg xmlns="http://www.w3.org/2000/svg" xmlns:xlink="http://www.w3.org/1999/xlink" width="278" height="38" viewBox="0 0 278 38"><defs><filter id="a" x="0" y="9" width="276" height="25" filterUnits="userSpaceOnUse"><feOffset dy="3" input="SourceAlpha"/><feGaussianBlur stdDeviation="3" result="b"/><feFlood flood-opacity="0.161"/><feComposite operator="in" in2="b"/><feComposite in="SourceGraphic"/></filter></defs><g transform="translate(224.421 -113.788)"><g transform="matrix(1, 0, 0, 1, -224.42, 113.79)" filter="url(#a)"><path d="M3.5,0h251a3.5,3.5,0,0,1,0,7H3.5a3.5,3.5,0,0,1,0-7Z" transform="translate(9 15)" fill="#875bef"/></g><g transform="translate(-216.208 119.397)"><path d="M13.5,0A13.257,13.257,0,0,1,27,13,13.257,13.257,0,0,1,13.5,26,13.257,13.257,0,0,1,0,13,13.257,13.257,0,0,1,13.5,0Z" transform="translate(-0.213 0.391)" fill="#875bef"/><path d="M1.378-9.113v1.378H3.341V0H4.875V-9.113Z" transform="translate(9.787 18.391)" fill="#fff"/></g><g transform="translate(-98.782 119.397)"><path d="M12,0A12,12,0,1,1,0,12,12,12,0,0,1,12,0Z" transform="translate(0.361 0.391)" fill="#875bef"/><path d="M4.147-4.719.676-1.131V0H7.345V-1.378H2.691L5.187-3.9A4.974,4.974,0,0,0,6.9-6.877c0-1.4-1.209-2.3-2.99-2.3A5.532,5.532,0,0,0,.52-7.878L1.144-6.7A4.078,4.078,0,0,1,3.705-7.826c1,0,1.6.429,1.6,1.17A3.369,3.369,0,0,1,4.147-4.719Z" transform="translate(8.361 17.391)" fill="#fff"/></g><g transform="translate(16.585 114.247)"><g transform="translate(-0.005 -0.459)" fill="#fff"><path d="M 18.5 35.5 C 14.23886966705322 35.5 10.22922992706299 33.79212951660156 7.209700107574463 30.69099044799805 C 4.172599792480469 27.57180976867676 2.5 23.41987037658691 2.5 19 C 2.5 14.58012962341309 4.172599792480469 10.42819023132324 7.209700107574463 7.309010028839111 C 10.22922992706299 4.207870006561279 14.23886966705322 2.5 18.5 2.5 C 22.76112937927246 2.5 26.7707691192627 4.207870006561279 29.7903003692627 7.309010028839111 C 32.82740020751953 10.42819023132324 34.5 14.58012962341309 34.5 19 C 34.5 23.41987037658691 32.82740020751953 27.57180976867676 29.7903003692627 30.69099044799805 C 26.7707691192627 33.79212951660156 22.76112937927246 35.5 18.5 35.5 Z" stroke="none"/><path d="M 18.5 5 C 14.91926956176758 5 11.54574966430664 6.439399719238281 9.000879287719727 9.053049087524414 C 6.420869827270508 11.70278930664062 5 15.23534965515137 5 19 C 5 22.76465034484863 6.420869827270508 26.29721069335938 9.000879287719727 28.94694900512695 C 11.54574966430664 31.56060028076172 14.91926956176758 33 18.5 33 C 22.08073043823242 33 25.45425033569336 31.56060028076172 27.99911880493164 28.94694900512695 C 30.57913017272949 26.29721069335938 32 22.76465034484863 32 19 C 32 15.23534965515137 30.57913017272949 11.70278930664062 27.99911880493164 9.053049087524414 C 25.45425033569336 6.439399719238281 22.08073043823242 5 18.5 5 M 18.5 0 C 28.71726989746094 0 37 8.506589889526367 37 19 C 37 29.49341011047363 28.71726989746094 38 18.5 38 C 8.282730102539062 38 0 29.49341011047363 0 19 C 0 8.506589889526367 8.282730102539062 0 18.5 0 Z" stroke="none" fill="#875bef"/></g><path d="M4.966-5.369l-.455-.065L6.968-7.722V-9.1H.6L.611-7.267h3.51L1.989-5.226v1.274H3.523c1.014,0,1.573.377,1.573,1.105s-.559,1.131-1.56,1.131A3.407,3.407,0,0,1,1.092-2.847L.13-1.014A6.194,6.194,0,0,0,3.718.1C5.98.1,7.423-1.118,7.423-2.873A2.556,2.556,0,0,0,4.966-5.369Z" transform="translate(14.995 23.541)" fill="#875bef"/></g></g></svg>