<svg xmlns="http://www.w3.org/2000/svg" width="161.375" height="22.75" viewBox="0 0 161.375 22.75"><path d="M1.7-17.525V0H5.775V-11.1L9.85-1.75h3l4.075-9.35L16.95,0H21V-17.525H16L11.35-7.3,6.7-17.525ZM30.5-13.7a14.9,14.9,0,0,0-6.3,1.475l1.225,3a9.9,9.9,0,0,1,4.05-1.075c1.7,0,2.575.75,2.575,2.025v.15H28.525c-3.35.05-5.175,1.525-5.175,4.1C23.35-1.55,25.075.2,27.975.2A4.882,4.882,0,0,0,32.05-1.525V0h4.375V-8.8C36.4-11.9,34.225-13.7,30.5-13.7ZM29.35-2.825c-1.15,0-1.825-.6-1.825-1.525,0-.95.625-1.4,1.875-1.4h2.65v1.175A2.669,2.669,0,0,1,29.35-2.825Zm18.6-10.7v1.65a4.808,4.808,0,0,0-3.95-1.8c-3.35,0-5.675,2.55-5.675,6.4,0,3.925,2.4,6.525,5.775,6.525a4.6,4.6,0,0,0,3.85-1.775v1.45c0,1.575-1.225,2.6-3.25,2.6A7.446,7.446,0,0,1,40.525.2l-1.55,3.075a11.228,11.228,0,0,0,6.05,1.75c4.375,0,7.35-2.4,7.35-6.225V-13.525ZM45.225-4c-1.65,0-2.75-1.3-2.75-3.15,0-1.875,1.1-3.175,2.75-3.175,1.625,0,2.725,1.275,2.725,3.175C47.95-5.3,46.85-4,45.225-4Zm28.45-9.7a4.824,4.824,0,0,0-4.725,3.025,4.49,4.49,0,0,0-4.5-3.025,4.819,4.819,0,0,0-4.4,2.4v-2.225H55.625V0H60.05V-6.675c0-1.775,1-3.025,2.575-3.05A2.176,2.176,0,0,1,64.85-7.25V0H69.3V-6.675c0-1.775.975-3.025,2.55-3.05A2.176,2.176,0,0,1,74.075-7.25V0h4.45V-8.525C78.525-11.7,76.6-13.7,73.675-13.7Zm13.975,0a14.9,14.9,0,0,0-6.3,1.475l1.225,3a9.9,9.9,0,0,1,4.05-1.075c1.7,0,2.575.75,2.575,2.025v.15H85.675c-3.35.05-5.175,1.525-5.175,4.1C80.5-1.55,82.225.2,85.125.2A4.882,4.882,0,0,0,89.2-1.525V0h4.375V-8.8C93.55-11.9,91.375-13.7,87.65-13.7ZM86.5-2.825c-1.15,0-1.825-.6-1.825-1.525,0-.95.625-1.4,1.875-1.4H89.2v1.175A2.669,2.669,0,0,1,86.5-2.825Zm22.15-9.3,1.725-3.625a13.442,13.442,0,0,0-7-1.975c-4.225,0-7,2.075-7,5.35,0,6.2,9.225,4.4,9.225,7.375,0,.925-.85,1.425-2.2,1.425a11.188,11.188,0,0,1-6.35-2.65L95.275-2.65A13.166,13.166,0,0,0,103.35.15c3.9,0,7.05-1.825,7.05-5.4,0-6.3-9.225-4.65-9.225-7.55,0-.8.725-1.2,1.825-1.2A13.626,13.626,0,0,1,108.65-12.125ZM120.675-3.85A4.672,4.672,0,0,1,119-3.4c-.775.025-1.225-.425-1.225-1.425v-5.1h3.5v-2.95h-3.5v-3.75H113.35v3.75h-1.875v2.95h1.875v5.8c0,2.8,1.9,4.35,4.525,4.325a7.446,7.446,0,0,0,3.65-.9Zm9.175-9.825c-4.45,0-7.375,2.75-7.375,6.9C122.475-2.6,125.4.15,129.85.15s7.4-2.75,7.4-6.925C137.25-10.925,134.3-13.675,129.85-13.675Zm0,3.6c1.75,0,2.925,1.35,2.925,3.35,0,2.025-1.175,3.375-2.925,3.375-1.725,0-2.9-1.35-2.9-3.375C126.95-8.725,128.125-10.075,129.85-10.075Zm14.125-1.2v-2.25h-4.45V0h4.45V-6.9c.225-1.875,1.875-2.975,4.35-2.725V-13.7A4.863,4.863,0,0,0,143.975-11.275Zm12.25-2.4c-4.225,0-7.05,2.775-7.05,6.975,0,4.125,2.725,6.85,7.15,6.85a7.6,7.6,0,0,0,5.9-2.4L159.9-4.575A4.483,4.483,0,0,1,156.725-3.2a3.03,3.03,0,0,1-3.075-2.375h9.4C163.35-10.5,160.95-13.675,156.225-13.675ZM153.55-7.95a2.8,2.8,0,0,1,2.7-2.6,2.416,2.416,0,0,1,2.5,2.6Z" transform="translate(-1.7 17.725)" fill="#875bef"/></svg>